Coordinates
version=1
nRows=14
nColumns=24
inDegrees=yes

Units are S.I. units (second, meters, Newtons, ...)
Angles are in degrees.

endheader
time	pelvis_tilt	pelvis_list	pelvis_rotation	pelvis_tx	pelvis_ty	pelvis_tz	hip_flexion_r	hip_adduction_r	hip_rotation_r	knee_angle_r	ankle_angle_r	subtalar_angle_r	mtp_angle_r	hip_flexion_l	hip_adduction_l	hip_rotation_l	knee_angle_l	ankle_angle_l	subtalar_angle_l	mtp_angle_l	lumbar_extension	lumbar_bending	lumbar_rotation
      4.72000000	    -11.47439095	      7.25787054	      4.25902939	     -1.65670412	     -0.03233472	      2.02561411	     16.01897153	    -13.19172373	    -12.42161945	    -59.31464526	    -14.30651215	     -5.83735034	    -16.47981941	     28.64104645	     11.99840155	     -5.41203796	    -21.60721899	     -3.34808121	     -6.15554601	     18.35165215	      8.71172617	     -8.67529455	     -2.97280637
      4.73000000	    -11.43426336	      7.34394713	      4.12713570	     -1.64503978	     -0.03074446	      2.02499948	     17.74739992	    -13.08947019	    -11.42557299	    -60.73772250	    -12.75393882	     -7.07804000	    -17.59312725	     27.60096009	     11.99800850	     -5.80463622	    -21.23229733	     -2.78148670	     -5.74169855	     19.60585130	      8.63035423	     -8.71453593	     -3.15511158
      4.74000000	    -11.27351956	      7.41861668	      3.97264003	     -1.63342452	     -0.02895336	      2.02437082	     19.31145217	    -12.93532699	    -10.46455918	    -61.83108834	    -11.36855937	     -7.85541085	    -17.51107112	     26.33800091	     12.03579439	     -5.93667492	    -20.72338417	     -2.12590663	     -5.43546992	     19.74019947	      8.43127201	     -8.71819619	     -3.33046150
      4.75000000	    -11.17955786	      7.44581998	      3.82608283	     -1.62203497	     -0.02727987	      2.02374962	     20.94162380	    -12.69208619	     -9.51296784	    -62.67710615	     -9.87130790	     -8.13948677	    -17.47374267	     25.12380945	     12.06828331	     -5.89586068	    -20.14516874	     -1.58003952	     -5.31815205	     19.66562936	      8.28203839	     -8.67545962	     -3.52012169
      4.76000000	    -11.10786790	      7.37217984	      3.71341509	     -1.61068118	     -0.02564222	      2.02300782	     22.51997080	    -12.32618767	     -8.64227833	    -63.21867702	     -8.14398695	     -7.91194482	    -18.38762357	     23.91324579	     12.05982829	     -5.60843600	    -19.58287607	     -0.74870611	     -5.18246098	     17.96070145	      8.17283046	     -8.51888647	     -3.77031013
      4.77000000	    -10.92718294	      7.24630672	      3.60825924	     -1.59939376	     -0.02388481	      2.02223703	     23.87231517	    -11.89530640	     -7.90050849	    -63.39162105	     -6.59740759	     -7.54205227	    -18.18665456	     22.53804243	     12.01292047	     -5.24094352	    -18.87099768	     -0.32366314	     -5.35546334	     17.60312036	      7.94283363	     -8.30124780	     -4.05386061
      4.78000000	    -10.70077854	      6.97503853	      3.61103280	     -1.58825820	     -0.02212967	      2.02134463	     25.03910497	    -11.34820216	     -7.40194850	    -63.22072468	     -4.98612566	     -7.07546783	    -18.59765824	     21.16849606	     11.85883753	     -4.67245179	    -18.31326072	      0.47569209	     -5.30351268	     15.75476427	      7.63828478	     -7.94818335	     -4.43281237
      4.79000000	    -10.60103074	      6.67681953	      3.60343574	     -1.57711068	     -0.02056598	      2.02044233	     26.27381134	    -10.79563096	     -6.98818410	    -62.76520766	     -3.58638390	     -6.62908515	    -18.44946623	     19.91710051	     11.65329493	     -4.23618488	    -17.63846168	      0.87246430	     -5.40512585	     15.60155576	      7.49157672	     -7.56656973	     -4.76348656
      4.80000000	    -10.36528216	      6.28079477	      3.66211800	     -1.56608670	     -0.01887808	      2.01944699	     27.23448951	    -10.18716537	     -6.78723695	    -62.00506963	     -1.94033442	     -6.17022060	    -20.77598302	     18.55186757	     11.36688143	     -3.67128202	    -17.06600183	      1.59782069	     -5.36461287	     13.60389333	      7.17465656	     -7.08109744	     -5.18481705
      4.81000000	    -10.15202409	      5.85414038	      3.79615627	     -1.55510768	     -0.01732556	      2.01833743	     28.10866156	     -9.65667333	     -6.86749235	    -60.93931691	     -0.84689411	     -6.04898124	    -20.98219818	     17.19931392	     11.03894371	     -3.20542713	    -16.39497323	      1.94229820	     -5.41809447	     13.60506296	      6.87797279	     -6.56965364	     -5.64737593
      4.82000000	     -9.78489979	      5.48096522	      3.87252501	     -1.54418727	     -0.01575432	      2.01734093	     28.75709824	     -9.17727942	     -6.97038556	    -59.67492714	      0.40936877	     -5.87786072	    -22.83813899	     15.65841619	     10.72145593	     -2.82343814	    -15.66330113	      2.27948723	     -5.42927180	     13.45166529	      6.40935300	     -6.09992967	     -6.00826740
      4.83000000	     -9.79069310	      5.01564007	      4.09579765	     -1.53336025	     -0.01474598	      2.01622347	     29.74089521	     -8.71400905	     -7.30548383	    -58.23808161	      1.77064900	     -5.85164253	    -26.96254210	     14.60753955	     10.32922158	     -2.48482527	    -15.06622893	      2.65793425	     -5.31414576	     13.48601757	      6.34170266	     -5.57605139	     -6.44441847
      4.84000000	     -9.70206610	      4.59184840	      4.29526855	     -1.52251732	     -0.01378318	      2.01517398	     30.52924983	     -8.32376737	     -7.76789618	    -56.53486028	      2.32175906	     -6.14551169	    -27.15012846	     13.43034425	      9.94949948	     -2.17958408	    -14.41531411	      3.02546981	     -5.15596006	     13.55231404	      6.17649261	     -5.08957980	     -6.84905904
      4.85000000	     -9.43122506	      4.23455919	      4.44076589	     -1.51161873	     -0.01282052	      2.01419341	     31.03060234	     -7.99384677	     -8.21664174	    -54.66547983	      3.06461314	     -6.15718923	    -27.96536300	     12.01550015	      9.60399839	     -1.93021742	    -13.68981777	      3.38387103	     -4.98970070	     13.59032165	      5.82323198	     -4.64633719	     -7.19946865
